<svg width="48" height="48" viewBox="0 0 48 48" fill="none" xmlns="http://www.w3.org/2000/svg">
<path d="M20.1821 36.3951C27.7816 36.3951 33.9421 30.2345 33.9421 22.6351C33.9421 15.0356 27.7816 8.87506 20.1821 8.87506C12.5827 8.87506 6.42212 15.0356 6.42212 22.6351C6.42212 30.2345 12.5827 36.3951 20.1821 36.3951Z" fill="#FFEC95"/>
<path d="M41.6222 17.1951C40.6817 16.6307 39.5886 16.8824 39.0622 17.8351C38.1462 19.4928 35.6671 22.2135 35.6671 22.2135L38.0308 8.43986C38.1233 7.70162 37.7058 6.9941 37.0151 6.71778L36.9754 6.70178C35.9764 6.3021 34.867 6.90834 34.6673 7.9589C33.9663 11.648 32.5502 18.5291 32.5502 18.5291L31.9881 6.04802C31.9522 5.21874 31.2695 4.56482 30.4394 4.56482H30.4001C29.5095 4.56482 28.7934 5.27762 28.7934 6.16082V17.8304L26.1106 7.63586C25.8796 6.75826 24.9001 6.3149 24.0884 6.72082C23.5338 6.9981 23.2212 7.60114 23.3143 8.21426L24.9639 19.0827L21.9046 13.4741C21.5167 12.7629 20.6321 12.4911 19.9118 12.8621C19.2577 13.1989 18.9468 13.9623 19.1794 14.6602L22.1154 21.5483C22.4022 22.4082 22.629 23.2866 22.7946 24.1776L23.6487 28.7706C23.9452 30.3648 24.3519 31.6584 25.7426 32.3154L25.6223 37.6751H34.5823L34.5095 32.6872C35.4575 32.4547 36.2631 31.7963 36.6569 30.8719L41.9436 19.3213C42.309 18.4632 42.422 17.6749 41.6222 17.1951Z" fill="#A9BA5A"/>
<path d="M34.5822 38.3151H25.6221C25.45 38.3151 25.285 38.2456 25.1647 38.1226C25.0441 37.9994 24.9785 37.8328 24.9825 37.6607L25.0937 32.6925C23.6786 31.8319 23.2905 30.3466 23.0193 28.8875L22.1655 24.2947C22.0058 23.437 21.7849 22.581 21.5081 21.7511L18.5905 14.9112C18.2374 13.8587 18.6773 12.7778 19.6183 12.2931C20.6393 11.7685 21.9164 12.16 22.4661 13.1679L23.7855 15.5866L22.6812 8.31027C22.5465 7.41971 22.9969 6.55091 23.8025 6.14835C24.3618 5.86835 25.0113 5.85587 25.5809 6.11395C26.1514 6.37203 26.5703 6.86739 26.7297 7.47299L28.1533 12.8835V6.16099C28.1533 4.92819 29.1612 3.92499 30.4002 3.92499C31.6159 3.92499 32.577 4.84563 32.6274 6.02067L32.9565 13.3232C33.3399 11.4195 33.7513 9.35267 34.0388 7.83987C34.1697 7.15139 34.5969 6.56355 35.2113 6.22707C35.8281 5.88931 36.5578 5.84515 37.2135 6.10803C38.2135 6.50803 38.7948 7.49331 38.666 8.51987L36.6892 20.0421C37.3646 19.2168 38.0994 18.2546 38.502 17.5258C38.8322 16.9277 39.3583 16.5061 39.983 16.3379C40.6308 16.1648 41.3302 16.2739 41.9518 16.6464C42.9174 17.2261 43.1127 18.2104 42.5324 19.5723L37.239 31.1383C36.8502 32.0517 36.0895 32.7808 35.1564 33.1511L35.2223 37.6658C35.2249 37.837 35.1586 38.0024 35.0383 38.1245C34.9177 38.2463 34.7534 38.3151 34.5822 38.3151ZM26.2765 37.0351H33.9329L33.8695 32.6967C33.8652 32.3986 34.0673 32.1367 34.357 32.0658C35.1233 31.8779 35.763 31.3379 36.0682 30.6211L41.3617 19.0552C41.7922 18.0437 41.5036 17.8706 41.2929 17.744C40.9713 17.5512 40.6247 17.4915 40.3151 17.5743C40.0252 17.652 39.7857 17.8496 39.6226 18.1445C38.681 19.8488 36.2436 22.5314 36.1404 22.6445C35.9492 22.8551 35.6423 22.9136 35.3863 22.7885C35.131 22.6639 34.9886 22.3853 35.0366 22.1053L37.4002 8.33187C37.4521 7.91123 37.1977 7.48035 36.7774 7.31219C36.4383 7.17619 36.1061 7.19587 35.8261 7.34963C35.5484 7.50147 35.3553 7.76739 35.2962 8.07843C34.6025 11.7299 33.1913 18.5893 33.1772 18.6584C33.1122 18.9751 32.8172 19.1899 32.4998 19.1675C32.1782 19.1419 31.9257 18.8807 31.9109 18.5581L31.3487 6.07683C31.3278 5.58739 30.9284 5.20499 30.4396 5.20499C29.8671 5.20499 29.4333 5.63379 29.4333 6.16099V17.8304C29.4333 18.152 29.1946 18.4239 28.8756 18.4651C28.555 18.5048 28.2562 18.3042 28.1743 17.9933L25.4914 7.79891C25.4308 7.56803 25.2711 7.37891 25.0533 7.28019C24.8353 7.18211 24.5881 7.18675 24.3746 7.29363C24.0671 7.44707 23.8953 7.77859 23.9468 8.11859L25.5965 18.9871C25.6431 19.2939 25.4625 19.5903 25.1681 19.6896C24.875 19.7887 24.5513 19.6627 24.4018 19.3896L21.3425 13.7807C21.1231 13.3773 20.6116 13.2207 20.2047 13.4312C19.8284 13.625 19.6529 14.0565 19.7866 14.4578L22.7041 21.2975C23.0178 22.2319 23.2538 23.1453 23.4241 24.0608L24.2778 28.6536C24.5769 30.2618 24.9422 31.2293 26.0159 31.7365C26.2444 31.8447 26.3881 32.0768 26.3822 32.3296L26.2765 37.0351Z" fill="#4C241D"/>
<path d="M15.647 15.54C15.4833 15.54 15.3195 15.4775 15.1945 15.3525L13.3845 13.5426C13.1345 13.2927 13.1345 12.8876 13.3845 12.6376C13.6344 12.3877 14.0395 12.3877 14.2894 12.6376L16.0993 14.4476C16.3493 14.6975 16.3493 15.1026 16.0993 15.3525C15.9745 15.4775 15.8107 15.54 15.647 15.54Z" fill="#4C241D"/>
<path d="M13.8372 15.54C13.6735 15.54 13.5097 15.4775 13.3847 15.3525C13.1348 15.1026 13.1348 14.6975 13.3847 14.4476L15.1946 12.6376C15.4445 12.3877 15.8497 12.3877 16.0996 12.6376C16.3495 12.8876 16.3495 13.2927 16.0996 13.5426L14.2897 15.3525C14.1645 15.4775 14.0009 15.54 13.8372 15.54Z" fill="#4C241D"/>
<path d="M10.2621 21.6751C10.6155 21.6751 10.9021 21.3885 10.9021 21.0351C10.9021 20.6816 10.6155 20.3951 10.2621 20.3951C9.90861 20.3951 9.62207 20.6816 9.62207 21.0351C9.62207 21.3885 9.90861 21.6751 10.2621 21.6751Z" fill="#4C241D"/>
<path d="M7.15716 16.3443C6.30996 16.3443 5.525 15.7943 5.26692 14.9427C5.11412 14.4381 5.1666 13.904 5.4154 13.4391C5.6642 12.9741 6.07908 12.6338 6.58388 12.481C7.62484 12.1653 8.72948 12.756 9.04548 13.7976C9.36116 14.8392 8.77044 15.9435 7.72884 16.2595C7.5386 16.3168 7.34612 16.3443 7.15716 16.3443ZM7.15556 13.676C7.089 13.676 7.02148 13.6858 6.9546 13.7061C6.77716 13.7599 6.6314 13.8795 6.54404 14.0429C6.45668 14.2063 6.43812 14.3941 6.49188 14.5717C6.60276 14.9383 6.99124 15.1461 7.35748 15.0346C7.72372 14.9237 7.93124 14.5352 7.82036 14.169C7.72932 13.8695 7.45332 13.676 7.15556 13.676Z" fill="#4C241D"/>
<path d="M32.2961 25.0385L32.4096 24.8873C33.208 23.8228 34.5536 23.0727 35.6161 22.2719C35.7184 22.1948 35.8209 22.0751 35.9193 21.9337" fill="#EDEBDC"/>
<path d="M32.2955 25.6784C32.1621 25.6784 32.0273 25.6368 31.9121 25.5503C31.6293 25.3384 31.5721 24.9372 31.7843 24.6543L31.8977 24.5031C32.5486 23.6349 33.4752 22.993 34.3712 22.3725C34.6669 22.1676 34.9587 21.966 35.2309 21.7607C35.2414 21.7525 35.2971 21.7076 35.3937 21.5685C35.5953 21.2786 35.995 21.2066 36.2843 21.4079C36.5745 21.6095 36.6465 22.0085 36.4449 22.2984C36.2977 22.5106 36.1525 22.669 36.0009 22.7831C35.716 22.9978 35.4104 23.2096 35.1 23.4247C34.2878 23.9876 33.4481 24.569 32.9216 25.2712L32.8081 25.4224C32.6824 25.5901 32.4902 25.6784 32.2955 25.6784Z" fill="#4C241D"/>
<path d="M26.2621 43.435V37.675H33.9421V43.435" fill="#FFDED5"/>
<path d="M33.9421 44.075C33.5886 44.075 33.3021 43.7885 33.3021 43.435V38.315H26.9021V43.435C26.9021 43.7885 26.6155 44.075 26.2621 44.075C25.9086 44.075 25.6221 43.7885 25.6221 43.435V37.675C25.6221 37.3216 25.9086 37.035 26.2621 37.035H33.9421C34.2955 37.035 34.5821 37.3216 34.5821 37.675V43.435C34.5821 43.7885 34.2955 44.075 33.9421 44.075Z" fill="#4C241D"/>
<path d="M23.7021 21.8466L21.3136 24.8751H8.56482C7.02802 24.8751 5.7821 26.121 5.7821 27.6578V36.1725C5.7821 37.7093 7.02802 38.9553 8.56482 38.9553H20.9194C22.4562 38.9553 23.7021 37.7095 23.7021 36.1725V21.8466Z" fill="#9DC1E4"/>
<path d="M20.9192 39.5951H8.56485C6.67765 39.5951 5.14197 38.0597 5.14197 36.1725V27.6578C5.14197 25.7703 6.67765 24.2349 8.56485 24.2349H21.0032L23.1996 21.4503C23.3684 21.2359 23.6546 21.1525 23.9117 21.2418C24.1692 21.3312 24.342 21.574 24.342 21.8464V36.172C24.3421 38.0594 22.8064 39.5951 20.9192 39.5951ZM8.56485 25.5151C7.38325 25.5151 6.42197 26.4764 6.42197 27.658V36.1727C6.42197 37.354 7.38325 38.3152 8.56485 38.3152H20.9192C22.1008 38.3152 23.0621 37.354 23.0621 36.1724V23.6917L21.8162 25.2714C21.6949 25.4255 21.5096 25.5151 21.3136 25.5151H8.56485Z" fill="#4C241D"/>
<path d="M19.5421 31.9151C19.5421 31.2082 18.969 30.6351 18.2621 30.6351H17.8322L18.1362 30.3311C18.6361 29.8313 18.6361 29.0209 18.1362 28.5209C17.6364 28.021 16.826 28.021 16.3261 28.5209L16.0221 28.8249V28.3951C16.0221 27.6882 15.449 27.1151 14.7421 27.1151C14.0353 27.1151 13.4621 27.6882 13.4621 28.3951V28.8249L13.1583 28.521C12.6585 28.0212 11.8481 28.0212 11.3481 28.521C10.8482 29.0209 10.8482 29.8314 11.3481 30.3313L11.6521 30.6353H11.2221C10.5153 30.6353 9.94214 31.2084 9.94214 31.9153C9.94214 32.6222 10.5153 33.1953 11.2221 33.1953H11.6519L11.3481 33.4991C10.8482 33.999 10.8482 34.8094 11.3481 35.3094C11.8479 35.8094 12.6583 35.8092 13.1583 35.3094L13.4621 35.0055V35.4353C13.4621 36.1422 14.0353 36.7153 14.7421 36.7153C15.449 36.7153 16.0221 36.1422 16.0221 35.4353V35.0054L16.3261 35.3094C16.826 35.8092 17.6364 35.8092 18.1362 35.3094C18.6361 34.8095 18.6361 33.9991 18.1362 33.4991L17.8324 33.1953H18.2621C18.969 33.1951 19.5421 32.622 19.5421 31.9151Z" fill="#F35CD2"/>
<path d="M14.7421 37.3551C13.9487 37.3551 13.2664 36.8717 12.974 36.1836C12.2802 36.4629 11.4562 36.3223 10.8956 35.7617C10.5327 35.3991 10.333 34.917 10.333 34.4042C10.333 34.153 10.3808 33.9089 10.4727 33.6826C9.78516 33.3901 9.30212 32.7079 9.30212 31.9151C9.30212 31.1223 9.78532 30.4401 10.4727 30.1473C10.3812 29.9213 10.333 29.6772 10.333 29.426C10.333 28.9132 10.5327 28.4309 10.8956 28.0682C11.4562 27.5076 12.2808 27.3666 12.974 27.6466C13.2664 26.9585 13.9487 26.4751 14.7421 26.4751C15.5349 26.4751 16.2172 26.9583 16.51 27.6457C17.1965 27.3673 18.0484 27.5279 18.589 28.0685C18.9516 28.4311 19.1512 28.9132 19.1512 29.426C19.1512 29.6772 19.1034 29.9213 19.0116 30.1473C19.6991 30.4401 20.1821 31.1223 20.1821 31.9151C20.1821 32.7079 19.6989 33.3901 19.0116 33.6826C19.1034 33.9089 19.1512 34.1529 19.1512 34.4042C19.1512 34.917 18.9516 35.3993 18.5887 35.762C18.0484 36.302 17.1965 36.4639 16.51 36.1845C16.2172 36.8719 15.5349 37.3551 14.7421 37.3551ZM13.4621 34.3653C13.5447 34.3653 13.6277 34.3813 13.7071 34.4141C13.9461 34.5132 14.1021 34.7466 14.1021 35.0053V35.4351C14.1021 35.7879 14.3893 36.0751 14.7421 36.0751C15.0949 36.0751 15.3821 35.7879 15.3821 35.4351V35.005C15.3821 34.7463 15.5381 34.5129 15.7772 34.4138C16.0162 34.3145 16.2912 34.3695 16.4746 34.5525L16.7786 34.8565C17.0205 35.0985 17.442 35.0985 17.6832 34.8565C17.8045 34.7356 17.8711 34.5749 17.8711 34.4041C17.8711 34.2332 17.8045 34.0722 17.6836 33.9513L17.3799 33.6476C17.1967 33.4644 17.1421 33.1895 17.2412 32.9501C17.3402 32.7111 17.5736 32.5551 17.8324 32.5551H18.2621C18.6149 32.5551 18.9021 32.2679 18.9021 31.9151C18.9021 31.5623 18.6149 31.2751 18.2621 31.2751H17.8324C17.5736 31.2751 17.3402 31.1191 17.2412 30.8801C17.1421 30.641 17.1968 30.3657 17.3796 30.1829L17.6832 29.8789C17.8045 29.7577 17.8711 29.597 17.8711 29.4261C17.8711 29.2553 17.8045 29.0946 17.6836 28.974C17.4416 28.7314 17.0202 28.7317 16.7789 28.9737L16.4743 29.2777C16.2914 29.4605 16.0156 29.5154 15.7772 29.4161C15.5381 29.317 15.3821 29.0836 15.3821 28.8249V28.3951C15.3821 28.0423 15.0949 27.7551 14.7421 27.7551C14.3893 27.7551 14.1021 28.0423 14.1021 28.3951V28.8249C14.1021 29.0836 13.9461 29.317 13.7071 29.4161C13.4668 29.5141 13.1927 29.4601 13.0096 29.2773L12.706 28.9737C12.4565 28.7242 12.05 28.7237 11.8007 28.9737C11.6797 29.0946 11.6132 29.2553 11.6132 29.4261C11.6132 29.597 11.6797 29.7577 11.8007 29.8783L12.1047 30.1826C12.2879 30.3658 12.3424 30.6407 12.2434 30.8801C12.1444 31.1191 11.9109 31.2751 11.6522 31.2751H11.2221C10.8693 31.2751 10.5821 31.5623 10.5821 31.9151C10.5821 32.2679 10.8693 32.5551 11.2221 32.5551H11.6519C11.9106 32.5551 12.144 32.7111 12.2431 32.9501C12.3421 33.1895 12.2874 33.4645 12.1044 33.6476L11.8007 33.9513C11.6797 34.0722 11.6132 34.2332 11.6132 34.4041C11.6132 34.5749 11.6797 34.7356 11.8007 34.8562C12.0495 35.1057 12.456 35.106 12.706 34.8565L13.0096 34.5529C13.132 34.4303 13.2956 34.3653 13.4621 34.3653Z" fill="#4C241D"/>
<path d="M14.7422 33.1951C15.4491 33.1951 16.0222 32.622 16.0222 31.9151C16.0222 31.2081 15.4491 30.6351 14.7422 30.6351C14.0352 30.6351 13.4622 31.2081 13.4622 31.9151C13.4622 32.622 14.0352 33.1951 14.7422 33.1951Z" fill="#BF7E68"/>
<path d="M14.7421 33.8351C13.6834 33.8351 12.8221 32.9738 12.8221 31.9151C12.8221 30.8563 13.6834 29.9951 14.7421 29.9951C15.8009 29.9951 16.6621 30.8563 16.6621 31.9151C16.6621 32.9738 15.8009 33.8351 14.7421 33.8351ZM14.7421 31.2751C14.3893 31.2751 14.1021 31.5623 14.1021 31.9151C14.1021 32.2679 14.3893 32.5551 14.7421 32.5551C15.0949 32.5551 15.3821 32.2679 15.3821 31.9151C15.3821 31.5623 15.0949 31.2751 14.7421 31.2751Z" fill="#4C241D"/>
</svg>
