<svg width="48" height="48" viewBox="0 0 48 48" fill="none" xmlns="http://www.w3.org/2000/svg">
<g clip-path="url(#clip0_140_4519)">
<path d="M17.416 38.8067L17.4549 38.7938C18.8061 38.3435 20.2213 38.1139 21.645 38.1139H31.9703C33.5014 38.1139 34.7425 36.8728 34.7425 35.3417C34.7425 33.8106 33.5014 32.5695 31.9703 32.5695H24.5694C22.8024 32.5695 21.0605 32.0973 19.5585 31.1655C17.7476 30.0425 14.8166 28.5267 11.1779 27.7179C4.94017 26.3318 0.78186 31.8767 0.78186 31.8767V39.5L3.21213 39.743C6.19424 40.0416 9.11191 40.8015 11.8604 41.9965L19.2604 45.214C22.0716 46.4363 25.2546 46.4833 28.1002 45.3452L34.0492 42.9655L35.1149 42.6992C37.9404 41.9929 40.2798 40.0196 41.4528 37.3539L47.2174 24.2529H46.7417C44.8601 24.2529 43.0878 25.139 41.959 26.6442L34.8638 34.8176" fill="#EAC583"/>
<path d="M23.8399 46.9412C22.1678 46.9412 20.4966 46.6042 18.9489 45.9311L11.5485 42.714C8.87115 41.5494 6.04031 40.8118 3.13473 40.5214L0.704465 40.2784C0.304343 40.2385 0 39.902 0 39.5V31.8767C0 31.7075 0.0550503 31.5428 0.156647 31.4076C0.338358 31.1646 4.69404 25.4743 11.3475 26.9548C15.0896 27.7864 18.1026 29.3426 19.9712 30.5018C21.3277 31.3432 22.9179 31.7876 24.5699 31.7876H31.9703C33.2459 31.7876 34.367 32.4626 34.9941 33.4749L41.3678 26.1318C42.6035 24.4816 44.6252 23.471 46.7417 23.471H47.2179C47.4824 23.471 47.7286 23.6044 47.8727 23.8255C48.0173 24.0466 48.0401 24.3263 47.934 24.568L42.1694 37.6691C40.9091 40.5344 38.3427 42.6988 35.3051 43.4583L34.291 43.7116L28.3912 46.0716C26.9393 46.6521 25.3894 46.9412 23.8399 46.9412ZM1.56468 38.792L3.29049 38.9648C6.35764 39.2713 9.34602 40.0505 12.1728 41.2796L19.5728 44.4966C22.175 45.6281 25.1759 45.6724 27.8107 44.6184L33.7588 42.2391C33.7919 42.2262 33.8255 42.2154 33.86 42.2069L34.9256 41.9402C37.4977 41.297 39.6707 39.4647 40.7372 37.0389L45.9952 25.0894C44.6489 25.2877 43.4101 26.0132 42.5848 27.1133L35.524 35.2509C35.5249 35.2813 35.5253 35.3113 35.5253 35.3422C35.5253 37.3021 33.9307 38.8967 31.9708 38.8967H21.6455C20.3033 38.8967 18.9767 39.112 17.7034 39.5363L17.416 38.8068L17.173 38.0634L17.2128 38.0504C18.6419 37.5742 20.1345 37.332 21.6455 37.332H31.9708C33.0678 37.332 33.9611 36.4392 33.9611 35.3417C33.9611 34.2443 33.0682 33.3514 31.9708 33.3514H24.5703C22.6266 33.3514 20.7513 32.8255 19.1472 31.8306C17.382 30.7354 14.5364 29.2661 11.0092 28.4815C5.97049 27.3639 2.34478 31.2309 1.56513 32.1533V38.792H1.56468Z" fill="black"/>
<path d="M27.1188 21.4807C27.1188 21.4807 23.6533 11.7775 36.1287 12.4708C36.1287 12.4708 36.822 26.3318 27.1188 21.4807Z" fill="#83D816"/>
<path d="M30.8058 23.2942C29.6027 23.2942 28.2538 22.9227 26.7688 22.1802C26.5889 22.0898 26.4501 21.9331 26.3821 21.7438C26.3217 21.5742 24.9239 17.5537 27.1452 14.5806C28.7595 12.4193 31.7949 11.4458 36.1721 11.6898C36.5713 11.7117 36.8895 12.0317 36.9092 12.4318C36.9249 12.7424 37.2476 20.074 33.5091 22.515C32.7142 23.0346 31.811 23.2942 30.8058 23.2942ZM27.7664 20.9248C29.8212 21.8884 31.4637 21.9828 32.6542 21.2054C34.871 19.7575 35.3504 15.4596 35.362 13.2227C31.9323 13.139 29.5974 13.9119 28.3984 15.5164C26.9715 17.4271 27.5261 20.0552 27.7664 20.9248Z" fill="black"/>
<path d="M21.9942 11.7461C21.9942 11.7461 11.3708 15.6511 12.0055 1.94093C12.0055 1.94093 27.2244 1.03909 21.9942 11.7461Z" fill="#83D816"/>
<path d="M18.8433 13.0454C17.4563 13.0454 15.8562 12.7483 14.4598 11.7256C12.0913 9.98993 11.0028 6.68557 11.2239 1.90469C11.2427 1.50502 11.5596 1.18367 11.9593 1.15995C12.2976 1.1407 20.3063 0.71328 23.0011 4.75836C24.2561 6.64126 24.1531 9.10733 22.6963 12.0894C22.6077 12.2707 22.4529 12.4108 22.2635 12.4802C22.1584 12.5191 20.6899 13.0454 18.8433 13.0454ZM12.7636 2.69912C12.696 6.52847 13.5763 9.13866 15.384 10.4634C17.5485 12.0492 20.5037 11.3751 21.4329 11.1044C22.4958 8.79762 22.5858 6.95589 21.6996 5.62574C20.0526 3.1534 15.2225 2.67003 12.7636 2.69912Z" fill="black"/>
<path d="M24.9521 33.0765C24.9275 33.0765 24.9029 33.0752 24.8778 33.073C24.4611 33.0336 24.1492 32.6733 24.1702 32.2548C24.2163 31.3346 24.2951 30.4619 24.402 29.6348C24.7274 24.0993 24.5596 11.2086 16.4094 7.64241C16.0138 7.4692 15.833 7.00821 16.0062 6.61212C16.1789 6.21692 16.6413 6.03655 17.0365 6.20931C21.8393 8.31062 24.8608 13.5422 25.7725 21.3383C25.8544 22.0369 25.9157 22.7257 25.9613 23.3966C28.1079 17.9726 31.3916 16.0562 31.5872 15.9465C31.9632 15.7339 32.4403 15.8691 32.6524 16.2446C32.8632 16.6205 32.7307 17.0963 32.3561 17.3084C32.2733 17.3568 27.2378 20.3787 25.9739 29.6979C25.8776 31.2921 25.7389 32.3085 25.7259 32.4016C25.6718 32.7919 25.3383 33.0765 24.9521 33.0765Z" fill="black"/>
</g>
<defs>
<clipPath id="clip0_140_4519">
<rect width="48" height="48" fill="white"/>
</clipPath>
</defs>
</svg>
