<svg width="48" height="48" viewBox="0 0 48 48" fill="none" xmlns="http://www.w3.org/2000/svg">
<path d="M22.08 36.8C30.2096 36.8 36.8 30.2096 36.8 22.08C36.8 13.9504 30.2096 7.35999 22.08 7.35999C13.9504 7.35999 7.35999 13.9504 7.35999 22.08C7.35999 30.2096 13.9504 36.8 22.08 36.8Z" fill="#FFEC95"/>
<path d="M35.52 42.56V33.6637C35.52 31.7006 34.3023 29.9434 32.4642 29.2541L25.28 26.56L18.0959 29.2541C16.2578 29.9434 15.04 31.7005 15.04 33.6637V42.56" fill="#FFCE56"/>
<path d="M35.52 43.2C35.1666 43.2 34.88 42.9134 34.88 42.56V33.6637C34.88 31.9768 33.8187 30.4456 32.2394 29.8534L25.28 27.2434L18.3207 29.8533C16.7413 30.4456 15.68 31.9768 15.68 33.6637V42.56C15.68 42.9134 15.3935 43.2 15.04 43.2C14.6866 43.2 14.4 42.9134 14.4 42.56V33.6637C14.4 31.4466 15.7951 29.4334 17.8712 28.6546L25.0552 25.9605C25.2002 25.9061 25.3595 25.9061 25.5047 25.9605L32.6887 28.6546C34.765 29.4334 36.16 31.4466 36.16 33.6637V42.56C36.16 42.9134 35.8735 43.2 35.52 43.2Z" fill="#4C241D"/>
<path d="M31.68 34.8799V28.9599L25.28 26.5599L18.88 28.9599V34.8799L18.24 42.5599H18.88H31.68H32.32L31.68 34.8799Z" fill="#A9BA5A"/>
<path d="M32.32 43.2H18.24C18.061 43.2 17.8903 43.1249 17.7692 42.9934C17.6479 42.8616 17.5876 42.6852 17.6023 42.5068L18.2423 34.8268L18.24 28.96C18.24 28.6931 18.4056 28.4544 18.6554 28.3606L25.0554 25.9606C25.2004 25.9062 25.3597 25.9062 25.5048 25.9606L31.9048 28.3606C32.1544 28.4544 32.32 28.6931 32.32 28.96V34.8534L32.9578 42.5068C32.9725 42.6852 32.9122 42.8616 32.7909 42.9934C32.6698 43.1249 32.4991 43.2 32.32 43.2ZM18.9354 41.92H31.6245L31.0423 34.9331C31.0407 34.9156 31.04 34.8977 31.04 34.88V29.4033L25.28 27.2433L19.52 29.4033V34.88L18.9354 41.92Z" fill="#4C241D"/>
<path d="M22.72 27.84H27.84V34.88H22.72V27.84Z" fill="#FFCE56"/>
<path d="M27.84 35.52H22.72C22.3665 35.52 22.08 35.2335 22.08 34.88V27.84C22.08 27.4866 22.3665 27.2 22.72 27.2H27.84C28.1934 27.2 28.48 27.4866 28.48 27.84V34.88C28.48 35.2335 28.1934 35.52 27.84 35.52ZM23.36 34.24H27.2V28.48H23.36V34.24Z" fill="#4C241D"/>
<path d="M13.1201 23.36C12.9564 23.36 12.7926 23.2974 12.6676 23.1724L10.7476 21.2524C10.4977 21.0025 10.4977 20.5974 10.7476 20.3475C10.9975 20.0976 11.4027 20.0976 11.6526 20.3475L13.5726 22.2675C13.8225 22.5174 13.8225 22.9225 13.5726 23.1724C13.4476 23.2974 13.2838 23.36 13.1201 23.36Z" fill="#4C241D"/>
<path d="M11.2001 23.36C11.0364 23.36 10.8726 23.2974 10.7476 23.1724C10.4977 22.9225 10.4977 22.5174 10.7476 22.2675L12.6676 20.3475C12.9175 20.0976 13.3227 20.0976 13.5726 20.3475C13.8225 20.5974 13.8225 21.0025 13.5726 21.2524L11.6526 23.1724C11.5276 23.2974 11.3638 23.36 11.2001 23.36Z" fill="#4C241D"/>
<path d="M38.72 22.08C37.6613 22.08 36.8 21.2187 36.8 20.16C36.8 19.1013 37.6613 18.24 38.72 18.24C39.7788 18.24 40.64 19.1013 40.64 20.16C40.64 21.2187 39.7788 22.08 38.72 22.08ZM38.72 19.52C38.3672 19.52 38.08 19.8072 38.08 20.16C38.08 20.5128 38.3672 20.8 38.72 20.8C39.0728 20.8 39.36 20.5128 39.36 20.16C39.36 19.8072 39.0728 19.52 38.72 19.52Z" fill="#4C241D"/>
<path d="M37.44 28.48C37.7935 28.48 38.08 28.1934 38.08 27.84C38.08 27.4865 37.7935 27.2 37.44 27.2C37.0866 27.2 36.8 27.4865 36.8 27.84C36.8 28.1934 37.0866 28.48 37.44 28.48Z" fill="#4C241D"/>
<path d="M10.56 13.76C10.9135 13.76 11.2 13.4734 11.2 13.12C11.2 12.7665 10.9135 12.48 10.56 12.48C10.2066 12.48 9.92004 12.7665 9.92004 13.12C9.92004 13.4734 10.2066 13.76 10.56 13.76Z" fill="#4C241D"/>
<path d="M25.28 31.04C23.8661 31.04 22.72 29.8939 22.72 28.48V24.64H27.84V28.48C27.84 29.8939 26.6939 31.04 25.28 31.04Z" fill="#FFDED5"/>
<path d="M25.28 31.68C23.5156 31.68 22.08 30.2443 22.08 28.48V24.64C22.08 24.2866 22.3665 24 22.72 24H27.84C28.1934 24 28.48 24.2866 28.48 24.64V28.48C28.48 30.2443 27.0443 31.68 25.28 31.68ZM23.36 25.28V28.48C23.36 29.5387 24.2212 30.4 25.28 30.4C26.3387 30.4 27.2 29.5387 27.2 28.48V25.28H23.36Z" fill="#4C241D"/>
<path d="M31.7072 14.4045H31.68V13.12H18.88V14.4067C17.895 14.4731 17.1555 15.3624 17.2974 16.3632L17.4433 17.3925C17.5536 18.1701 18.1686 18.7587 18.9246 18.8552V21.7C18.9246 24.7376 21.3856 27.2 24.4214 27.2H26.1385C29.1744 27.2 31.6353 24.7376 31.6353 21.7V18.8552C32.3912 18.7587 33.0064 18.1701 33.1166 17.3925L33.2625 16.3632C33.4032 15.371 32.6792 14.4846 31.7072 14.4045Z" fill="#FFDED5"/>
<path d="M26.1384 27.84H24.4213C21.0376 27.84 18.2846 25.0856 18.2846 21.7V19.3469C17.508 19.0422 16.9309 18.3363 16.8096 17.4825L16.6637 16.4528C16.5706 15.795 16.7486 15.1496 17.1656 14.6357C17.4475 14.2878 17.8224 14.0297 18.24 13.8878V13.12C18.24 12.7665 18.5266 12.48 18.88 12.48H31.68C32.0334 12.48 32.32 12.7665 32.32 13.12V13.8833C32.7422 14.0273 33.1213 14.2905 33.404 14.6449C33.8138 15.1581 33.9886 15.8003 33.8962 16.4528L33.7502 17.4822C33.629 18.3363 33.0518 19.0422 32.2752 19.3469V21.7C32.2754 25.0856 29.5222 27.84 26.1384 27.84ZM19.52 13.76V14.4065C19.52 14.7432 19.259 15.0225 18.9232 15.0449C18.6219 15.0656 18.3507 15.2062 18.16 15.4416C17.9698 15.6763 17.8885 15.9715 17.9312 16.2734L18.0771 17.3029C18.145 17.7819 18.5269 18.1592 19.0056 18.22C19.325 18.2609 19.5646 18.5328 19.5646 18.855V21.7C19.5646 24.3797 21.7434 26.56 24.4213 26.56H26.1384C28.8165 26.56 30.9952 24.3797 30.9952 21.7V18.855C30.9952 18.5328 31.2349 18.2609 31.5542 18.22C32.033 18.159 32.4149 17.7819 32.4827 17.3025L32.6286 16.2734C32.6712 15.9734 32.5912 15.6787 32.4037 15.4433C32.2214 15.2152 31.9643 15.0739 31.6778 15.0443C31.3253 15.043 31.04 14.7571 31.04 14.4043V13.76H19.52Z" fill="#4C241D"/>
<path d="M27.84 18.24C28.1934 18.24 28.48 17.9534 28.48 17.6C28.48 17.2465 28.1934 16.96 27.84 16.96C27.4865 16.96 27.2 17.2465 27.2 17.6C27.2 17.9534 27.4865 18.24 27.84 18.24Z" fill="#4C241D"/>
<path d="M22.72 18.24C23.0734 18.24 23.36 17.9534 23.36 17.6C23.36 17.2465 23.0734 16.96 22.72 16.96C22.3665 16.96 22.08 17.2465 22.08 17.6C22.08 17.9534 22.3665 18.24 22.72 18.24Z" fill="#4C241D"/>
<path d="M25.92 22.08H24.64C23.9331 22.08 23.36 21.5069 23.36 20.8V20.16H27.2V20.8C27.2 21.5069 26.6269 22.08 25.92 22.08Z" fill="#6B4F5B"/>
<path d="M25.92 22.72H24.64C23.5813 22.72 22.72 21.8587 22.72 20.8V20.16C22.72 19.8065 23.0065 19.52 23.36 19.52H27.2C27.5534 19.52 27.84 19.8065 27.84 20.16V20.8C27.84 21.8587 26.9787 22.72 25.92 22.72ZM24 20.8C24 21.1528 24.2872 21.44 24.64 21.44H25.92C26.2728 21.44 26.56 21.1528 26.56 20.8H24Z" fill="#4C241D"/>
<path d="M29.1199 16.32H27.1999C26.8465 16.32 26.5599 16.0334 26.5599 15.68C26.5599 15.3265 26.8465 15.04 27.1999 15.04H29.1199C29.4734 15.04 29.7599 15.3265 29.7599 15.68C29.7599 16.0334 29.4734 16.32 29.1199 16.32Z" fill="#4C241D"/>
<path d="M23.3599 16.32H21.4399C21.0865 16.32 20.7999 16.0334 20.7999 15.68C20.7999 15.3265 21.0865 15.04 21.4399 15.04H23.3599C23.7134 15.04 23.9999 15.3265 23.9999 15.68C23.9999 16.0334 23.7134 16.32 23.3599 16.32Z" fill="#4C241D"/>
<path d="M34.88 13.76H15.68C14.6197 13.76 13.76 12.9003 13.76 11.84H36.8C36.8 12.9003 35.9403 13.76 34.88 13.76Z" fill="#BF7E68"/>
<path d="M34.88 14.4H15.68C14.2685 14.4 13.12 13.2515 13.12 11.84C13.12 11.4866 13.4066 11.2 13.76 11.2H36.8C37.1534 11.2 37.44 11.4866 37.44 11.84C37.44 13.2515 36.2915 14.4 34.88 14.4ZM14.5718 12.48C14.7934 12.8623 15.2072 13.12 15.68 13.12H34.88C35.3528 13.12 35.7666 12.8623 35.9882 12.48H14.5718Z" fill="#4C241D"/>
<path d="M26.56 5.44H24C20.8189 5.44 18.24 8.01888 18.24 11.2V11.84H32.32V11.2C32.32 8.01888 29.7411 5.44 26.56 5.44Z" fill="#BF7E68"/>
<path d="M32.32 12.48H18.24C17.8865 12.48 17.6 12.1934 17.6 11.84V11.2C17.6 7.67087 20.4709 4.79999 24 4.79999H26.56C30.0891 4.79999 32.96 7.67087 32.96 11.2V11.84C32.96 12.1934 32.6734 12.48 32.32 12.48ZM18.88 11.2H31.68C31.68 8.37679 29.3832 6.07999 26.56 6.07999H24C21.1768 6.07999 18.88 8.37679 18.88 11.2Z" fill="#4C241D"/>
<path d="M31.68 35.52H18.88C18.5266 35.52 18.24 35.2334 18.24 34.88C18.24 34.5266 18.5266 34.24 18.88 34.24H31.68C32.0334 34.24 32.32 34.5266 32.32 34.88C32.32 35.2334 32.0334 35.52 31.68 35.52Z" fill="#4C241D"/>
</svg>
